<svg width="18" height="20" viewBox="0 0 18 20" fill="none" xmlns="http://www.w3.org/2000/svg">
<path d="M6.28125 11.25H4.71875C4.46094 11.25 4.25 11.0391 4.25 10.7812V9.21875C4.25 8.96094 4.46094 8.75 4.71875 8.75H6.28125C6.53906 8.75 6.75 8.96094 6.75 9.21875V10.7812C6.75 11.0391 6.53906 11.25 6.28125 11.25ZM10.5 10.7812V9.21875C10.5 8.96094 10.2891 8.75 10.0312 8.75H8.46875C8.21094 8.75 8 8.96094 8 9.21875V10.7812C8 11.0391 8.21094 11.25 8.46875 11.25H10.0312C10.2891 11.25 10.5 11.0391 10.5 10.7812ZM14.25 10.7812V9.21875C14.25 8.96094 14.0391 8.75 13.7812 8.75H12.2188C11.9609 8.75 11.75 8.96094 11.75 9.21875V10.7812C11.75 11.0391 11.9609 11.25 12.2188 11.25H13.7812C14.0391 11.25 14.25 11.0391 14.25 10.7812ZM10.5 14.5312V12.9688C10.5 12.7109 10.2891 12.5 10.0312 12.5H8.46875C8.21094 12.5 8 12.7109 8 12.9688V14.5312C8 14.7891 8.21094 15 8.46875 15H10.0312C10.2891 15 10.5 14.7891 10.5 14.5312ZM6.75 14.5312V12.9688C6.75 12.7109 6.53906 12.5 6.28125 12.5H4.71875C4.46094 12.5 4.25 12.7109 4.25 12.9688V14.5312C4.25 14.7891 4.46094 15 4.71875 15H6.28125C6.53906 15 6.75 14.7891 6.75 14.5312ZM14.25 14.5312V12.9688C14.25 12.7109 14.0391 12.5 13.7812 12.5H12.2188C11.9609 12.5 11.75 12.7109 11.75 12.9688V14.5312C11.75 14.7891 11.9609 15 12.2188 15H13.7812C14.0391 15 14.25 14.7891 14.25 14.5312ZM18 4.375V18.125C18 19.1602 17.1602 20 16.125 20H2.375C1.33984 20 0.5 19.1602 0.5 18.125V4.375C0.5 3.33984 1.33984 2.5 2.375 2.5H4.25V0.46875C4.25 0.210938 4.46094 0 4.71875 0H6.28125C6.53906 0 6.75 0.210938 6.75 0.46875V2.5H11.75V0.46875C11.75 0.210938 11.9609 0 12.2188 0H13.7812C14.0391 0 14.25 0.210938 14.25 0.46875V2.5H16.125C17.1602 2.5 18 3.33984 18 4.375ZM16.125 17.8906V6.25H2.375V17.8906C2.375 18.0195 2.48047 18.125 2.60938 18.125H15.8906C16.0195 18.125 16.125 18.0195 16.125 17.8906Z" fill="#A4A1AA"/>
</svg>
