<svg width="24" height="24" viewBox="0 0 24 24" fill="none" xmlns="http://www.w3.org/2000/svg">
<path d="M15.094 12.75C15.094 13.3619 14.9126 13.96 14.5726 14.4688C14.2327 14.9775 13.7495 15.3741 13.1842 15.6082C12.6189 15.8424 11.9968 15.9037 11.3967 15.7843C10.7966 15.6649 10.2453 15.3703 9.81263 14.9376C9.37996 14.5049 9.08531 13.9537 8.96594 13.3536C8.84657 12.7534 8.90783 12.1314 9.14199 11.5661C9.37615 11.0008 9.77269 10.5176 10.2814 10.1776C10.7902 9.83769 11.3884 9.65625 12.0002 9.65625C12.8204 9.65746 13.6066 9.98379 14.1865 10.5637C14.7665 11.1436 15.0928 11.9299 15.094 12.75Z" fill="white"/>
<path d="M19.3127 6H16.219L15.7831 4.84336C15.6626 4.52207 15.4469 4.24522 15.1648 4.04984C14.8827 3.85445 14.5477 3.74984 14.2045 3.75H9.79243C9.44929 3.74984 9.11428 3.85445 8.8322 4.04984C8.55011 4.24522 8.33441 4.52207 8.21392 4.84336L7.78149 6H4.68774C4.24019 6 3.81097 6.17779 3.4945 6.49426C3.17803 6.81073 3.00024 7.23995 3.00024 7.6875V17.8125C3.00024 18.2601 3.17803 18.6893 3.4945 19.0057C3.81097 19.3222 4.24019 19.5 4.68774 19.5H19.3127C19.7603 19.5 20.1895 19.3222 20.506 19.0057C20.8225 18.6893 21.0002 18.2601 21.0002 17.8125V7.6875C21.0002 7.23995 20.8225 6.81073 20.506 6.49426C20.1895 6.17779 19.7603 6 19.3127 6ZM12.0002 16.9688C11.1659 16.9688 10.3502 16.7213 9.65643 16.2578C8.96266 15.7942 8.42194 15.1353 8.10263 14.3644C7.78332 13.5936 7.69978 12.7453 7.86256 11.927C8.02534 11.1086 8.42714 10.3569 9.01714 9.76689C9.60714 9.17689 10.3589 8.77509 11.1772 8.61231C11.9956 8.44953 12.8438 8.53308 13.6147 8.85238C14.3856 9.17169 15.0444 9.71242 15.508 10.4062C15.9716 11.1 16.219 11.9156 16.219 12.75C16.2181 13.8686 15.7733 14.9411 14.9823 15.7321C14.1914 16.523 13.1188 16.9678 12.0002 16.9688Z" fill="white"/>
</svg>
