<svg width="24" height="24" viewBox="0 0 24 24" fill="none" xmlns="http://www.w3.org/2000/svg">
<g clip-path="url(#clip0_346_2081)">
<path d="M8.78125 13.25H7.21875C6.96094 13.25 6.75 13.0391 6.75 12.7812V11.2188C6.75 10.9609 6.96094 10.75 7.21875 10.75H8.78125C9.03906 10.75 9.25 10.9609 9.25 11.2188V12.7812C9.25 13.0391 9.03906 13.25 8.78125 13.25ZM13 12.7812V11.2188C13 10.9609 12.7891 10.75 12.5312 10.75H10.9688C10.7109 10.75 10.5 10.9609 10.5 11.2188V12.7812C10.5 13.0391 10.7109 13.25 10.9688 13.25H12.5312C12.7891 13.25 13 13.0391 13 12.7812ZM16.75 12.7812V11.2188C16.75 10.9609 16.5391 10.75 16.2812 10.75H14.7188C14.4609 10.75 14.25 10.9609 14.25 11.2188V12.7812C14.25 13.0391 14.4609 13.25 14.7188 13.25H16.2812C16.5391 13.25 16.75 13.0391 16.75 12.7812ZM13 16.5312V14.9688C13 14.7109 12.7891 14.5 12.5312 14.5H10.9688C10.7109 14.5 10.5 14.7109 10.5 14.9688V16.5312C10.5 16.7891 10.7109 17 10.9688 17H12.5312C12.7891 17 13 16.7891 13 16.5312ZM9.25 16.5312V14.9688C9.25 14.7109 9.03906 14.5 8.78125 14.5H7.21875C6.96094 14.5 6.75 14.7109 6.75 14.9688V16.5312C6.75 16.7891 6.96094 17 7.21875 17H8.78125C9.03906 17 9.25 16.7891 9.25 16.5312ZM16.75 16.5312V14.9688C16.75 14.7109 16.5391 14.5 16.2812 14.5H14.7188C14.4609 14.5 14.25 14.7109 14.25 14.9688V16.5312C14.25 16.7891 14.4609 17 14.7188 17H16.2812C16.5391 17 16.75 16.7891 16.75 16.5312ZM20.5 6.375V20.125C20.5 21.1602 19.6602 22 18.625 22H4.875C3.83984 22 3 21.1602 3 20.125V6.375C3 5.33984 3.83984 4.5 4.875 4.5H6.75V2.46875C6.75 2.21094 6.96094 2 7.21875 2H8.78125C9.03906 2 9.25 2.21094 9.25 2.46875V4.5H14.25V2.46875C14.25 2.21094 14.4609 2 14.7188 2H16.2812C16.5391 2 16.75 2.21094 16.75 2.46875V4.5H18.625C19.6602 4.5 20.5 5.33984 20.5 6.375ZM18.625 19.8906V8.25H4.875V19.8906C4.875 20.0195 4.98047 20.125 5.10938 20.125H18.3906C18.5195 20.125 18.625 20.0195 18.625 19.8906Z" fill="#A4A1AA"/>
</g>
<defs>
<clipPath id="clip0_346_2081">
<rect width="17.5" height="20" fill="white" transform="translate(3 2)"/>
</clipPath>
</defs>
</svg>
