<svg width="24" height="19" viewBox="0 0 24 19" fill="none" xmlns="http://www.w3.org/2000/svg">
<path d="M18.3333 7.17L11 1.13C10.6389 0.863334 10.2778 0.810001 9.91667 0.970001C9.55556 1.13 9.36111 1.42333 9.33333 1.85V5.17C6.58333 5.30333 4.36111 5.90333 2.66667 6.97C0.944444 8.06333 0.0555556 9.89 0 12.45C0.0277778 13.7033 0.375 14.8767 1.04167 15.97C1.70833 17.09 2.51389 17.97 3.45833 18.61C3.79167 18.7967 4.08333 18.81 4.33333 18.65C4.61111 18.4633 4.70833 18.21 4.625 17.89C3.84722 15.4633 3.875 13.69 4.70833 12.57C5.51389 11.4767 7.05556 10.8233 9.33333 10.61V13.97C9.36111 14.3967 9.55556 14.69 9.91667 14.85C10.2778 15.01 10.6389 14.9567 11 14.69L18.3333 8.65C18.5556 8.43667 18.6667 8.18333 18.6667 7.89C18.6667 7.59667 18.5556 7.35667 18.3333 7.17ZM23.6667 7.17L16.3333 1.13C15.9722 0.863334 15.6111 0.810001 15.25 0.970001C14.8889 1.13 14.6944 1.42333 14.6667 1.85V2.45L21.25 7.89L14.6667 13.33V13.97C14.6944 14.3967 14.8889 14.69 15.25 14.85C15.6111 15.01 15.9722 14.9567 16.3333 14.69L23.6667 8.65C23.8889 8.43667 24 8.18333 24 7.89C24 7.59667 23.8889 7.35667 23.6667 7.17Z" fill="#28A428"/>
</svg>
